# 3ds Max Wavefront OBJ Exporter v0.97b - (c)2007 guruware
# File Created: 02.03.2017 18:41:53

mtllib slingshot.mtl

#
# object Cylinder001
#

v  21.8174 11.1323 -8.5521
v  16.8899 -1.5532 -9.1620
v  13.8684 -0.6977 -5.4173
v  19.2719 12.0749 -5.4173
v  16.8899 -1.5532 -1.6727
v  21.8174 11.1323 -2.2826
v  19.9114 -2.4087 -5.4173
v  24.3635 10.1895 -5.4173
v  59.4743 68.3306 -5.4173
v  58.9410 68.3502 -6.0302
v  58.4088 68.3648 -5.4173
v  58.9410 68.3502 -4.8044
v  41.7479 46.0622 -7.1170
v  40.6353 47.0232 -5.4173
v  45.3317 51.8415 -5.4173
v  46.2708 50.9031 -6.9515
v  41.7479 46.0622 -3.7176
v  46.2708 50.9031 -3.8832
v  42.8634 45.0989 -5.4173
v  47.2113 49.9632 -5.4173
v  26.8742 23.6193 -8.1183
v  24.7912 24.6776 -5.4173
v  31.8955 36.1092 -5.4173
v  33.4984 35.0512 -7.6376
v  26.8742 23.6193 -2.7163
v  33.4984 35.0512 -3.1971
v  28.9621 22.5589 -5.4173
v  35.1050 33.9909 -5.4173
v  61.6242 64.1502 -6.5985
v  61.0491 64.9977 -5.4173
v  62.6377 66.2186 -5.4173
v  63.5386 65.8183 -6.5420
v  61.6242 64.1502 -4.2361
v  63.5386 65.8183 -4.2926
v  62.2002 63.3069 -5.4173
v  64.4207 65.4362 -5.4173
v  58.8747 70.3252 -6.3763
v  59.0194 69.5021 -5.4173
v  57.9619 69.1771 -5.4173
v  57.6057 69.9033 -6.3462
v  58.8747 70.3252 -4.4584
v  57.6057 69.9033 -4.4885
v  58.7315 71.1379 -5.4173
v  57.2527 70.6212 -5.4173
v  56.0049 66.9121 -6.2551
v  56.6774 67.2096 -5.4173
v  56.8937 66.8600 -5.4173
v  56.6318 66.2028 -6.2246
v  56.0049 66.9121 -4.5795
v  56.6318 66.2028 -4.6100
v  55.3543 66.6129 -5.4173
v  56.4035 65.5554 -5.4173
v  56.3877 69.0993 -6.3157
v  56.9415 68.5418 -5.4173
v  56.5786 68.0385 -5.4173
v  55.8243 68.1408 -6.2852
v  56.3877 69.0993 -4.5189
v  55.8243 68.1408 -4.5495
v  55.8417 69.6430 -5.4173
v  55.0892 68.2288 -5.4173
v  57.7926 66.0865 -6.1941
v  57.5620 66.7322 -5.4173
v  58.2696 67.4258 -5.4173
v  58.8092 67.0518 -6.1638
v  57.7926 66.0865 -4.6405
v  58.8092 67.0518 -4.6709
v  58.0186 65.4678 -5.4173
v  59.3171 66.6716 -5.4173
v  63.7346 68.5553 -6.4861
v  62.8369 68.2777 -5.4173
v  61.6801 69.4859 -5.4173
v  61.9075 70.3452 -6.4309
v  63.7346 68.5553 -4.3485
v  61.9075 70.3452 -4.4037
v  64.6068 68.8197 -5.4173
v  62.1154 71.1840 -5.4173
v  50.9881 55.3893 -6.8339
v  50.1599 56.2937 -5.4173
v  55.2239 60.7092 -5.4173
v  55.9689 59.8684 -6.7162
v  50.9881 55.3893 -4.0008
v  55.9689 59.8684 -4.1185
v  51.8169 54.4843 -5.4173
v  56.7156 59.0252 -5.4173
# 84 vertices

vn 0.0089 0.0359 -0.9993
vn -0.0318 0.0570 -0.9979
vn -0.9198 0.3924 -0.0017
vn -0.9179 0.3969 -0.0011
vn -0.0290 0.0551 0.9981
vn 0.0111 0.0355 0.9993
vn 0.9438 -0.3306 0.0017
vn 0.9406 -0.3395 0.0011
vn 0.0321 0.9995 -0.0000
vn 0.0321 0.9995 0.0040
vn 0.0321 0.9995 0.0000
vn 0.0321 0.9995 -0.0040
vn -0.0004 0.0410 -0.9992
vn -0.7493 0.6623 0.0001
vn -0.6973 0.7168 0.0001
vn 0.0048 0.0256 -0.9997
vn -0.0005 0.0409 0.9992
vn 0.0047 0.0255 0.9997
vn 0.7846 -0.6199 0.0001
vn 0.7236 -0.6902 0.0001
vn -0.0158 0.0454 -0.9988
vn -0.8851 0.4654 0.0000
vn -0.8167 0.5770 0.0001
vn -0.0037 0.0469 -0.9989
vn -0.0156 0.0453 0.9988
vn -0.0037 0.0468 0.9989
vn 0.9117 -0.4110 0.0002
vn 0.8521 -0.5234 0.0001
vn 0.0303 0.0066 -0.9995
vn -0.6070 0.7947 -0.0049
vn -0.8708 0.4915 -0.0088
vn 0.1743 -0.0636 -0.9826
vn 0.0344 0.0006 0.9994
vn 0.1793 -0.0723 0.9811
vn 0.6494 -0.7605 0.0028
vn 0.9082 -0.4186 0.0028
vn -0.0302 0.0748 -0.9967
vn 0.1435 -0.9897 0.0000
vn 0.4147 -0.9100 -0.0013
vn -0.0480 0.0493 -0.9976
vn -0.0305 0.0734 0.9968
vn -0.0495 0.0498 0.9975
vn -0.1758 0.9844 -0.0012
vn -0.4531 0.8914 0.0001
vn -0.1088 -0.0894 -0.9900
vn 0.9399 0.3411 -0.0156
vn 0.5793 0.8145 -0.0312
vn -0.0624 -0.1644 -0.9844
vn -0.1171 -0.0952 0.9885
vn -0.0718 -0.1793 0.9812
vn -0.8938 -0.4484 0.0022
vn -0.4054 -0.9141 0.0047
vn -0.1013 0.0509 -0.9935
vn 0.6888 -0.7249 -0.0086
vn 0.9654 -0.2604 -0.0112
vn -0.1639 0.0121 -0.9864
vn -0.1064 0.0566 0.9927
vn -0.1702 0.0157 0.9853
vn -0.7423 0.6701 0.0021
vn -0.9872 0.1593 0.0013
vn 0.0896 -0.1899 -0.9777
vn -0.2819 0.9594 -0.0059
vn -0.8949 0.4462 0.0100
vn 0.1986 -0.0098 -0.9800
vn 0.0823 -0.1945 0.9774
vn 0.1783 -0.0143 0.9839
vn 0.3410 -0.9401 -0.0005
vn 0.8920 -0.4520 -0.0085
vn -0.9872 0.1591 0.0095
vn 0.0555 0.0630 -0.9965
vn 0.0289 0.0872 0.9958
vn 0.9974 -0.0697 -0.0168
vn 0.1809 0.1074 -0.9776
vn -0.9404 -0.3402 -0.0040
vn -0.4215 -0.9068 -0.0027
vn 0.0794 0.1738 -0.9816
vn 0.1833 0.1075 0.9772
vn 0.0798 0.1742 0.9815
vn 0.9335 0.3585 0.0000
vn 0.3477 0.9376 -0.0009
vn 0.0084 0.0172 -0.9998
vn -0.6676 0.7445 0.0000
vn -0.6261 0.7798 0.0001
vn 0.0001 0.0274 -0.9996
vn 0.0083 0.0171 0.9998
vn 0.0003 0.0277 0.9996
vn 0.6903 -0.7235 0.0000
vn 0.6478 -0.7618 0.0000
# 88 vertex normals

vt 0.9273 0.1525 1.0000
vt 0.9273 0.0190 1.0000
vt 0.9847 0.0190 1.0000
vt 0.9847 0.1525 1.0000
vt 0.8714 0.1525 1.0000
vt 0.8714 0.0200 1.0000
vt 0.9273 0.0200 1.0000
vt 0.9847 0.0200 1.0000
vt 0.8714 0.0190 1.0000
vt 0.8337 0.0997 0.2500
vt 0.7549 0.0997 0.2500
vt 0.7549 0.0211 0.2500
vt 0.8337 0.0211 0.2500
vt 0.9273 0.5078 1.0000
vt 0.9847 0.5078 1.0000
vt 0.9847 0.5684 1.0000
vt 0.9273 0.5684 1.0000
vt 0.8714 0.5078 1.0000
vt 0.8714 0.5684 1.0000
vt 0.9273 0.2688 1.0000
vt 0.9847 0.2688 1.0000
vt 0.9847 0.3900 1.0000
vt 0.9273 0.3900 1.0000
vt 0.8714 0.2688 1.0000
vt 0.8714 0.3900 1.0000
vt 0.9273 0.7517 1.0000
vt 0.9847 0.7517 1.0000
vt 0.9847 0.7788 1.0000
vt 0.9273 0.7788 1.0000
vt 0.8714 0.7517 1.0000
vt 0.8714 0.7788 1.0000
vt 0.9273 0.8711 1.0000
vt 0.9847 0.8711 1.0000
vt 0.9847 0.8865 1.0000
vt 0.9273 0.8865 1.0000
vt 0.8714 0.8711 1.0000
vt 0.8714 0.8865 1.0000
vt 0.9273 0.9308 1.0000
vt 0.9847 0.9308 1.0000
vt 0.9847 0.9449 1.0000
vt 0.9273 0.9449 1.0000
vt 0.8714 0.9308 1.0000
vt 0.8714 0.9449 1.0000
vt 0.9273 0.9016 1.0000
vt 0.9847 0.9016 1.0000
vt 0.9847 0.9157 1.0000
vt 0.9273 0.9157 1.0000
vt 0.8714 0.9016 1.0000
vt 0.8714 0.9157 1.0000
vt 0.9273 0.9605 1.0000
vt 0.9847 0.9605 1.0000
vt 0.9847 0.9767 1.0000
vt 0.9273 0.9767 1.0000
vt 0.8714 0.9605 1.0000
vt 0.8714 0.9767 1.0000
vt 0.9847 0.9902 1.0000
vt 0.9273 0.9902 1.0000
vt 0.8714 0.9902 1.0000
vt 0.9273 0.8092 1.0000
vt 0.9847 0.8092 1.0000
vt 0.9847 0.8418 1.0000
vt 0.9273 0.8418 1.0000
vt 0.8714 0.8092 1.0000
vt 0.8714 0.8418 1.0000
vt 0.9273 0.6310 1.0000
vt 0.9847 0.6310 1.0000
vt 0.9847 0.6937 1.0000
vt 0.9273 0.6937 1.0000
vt 0.8714 0.6310 1.0000
vt 0.8714 0.6937 1.0000
# 70 texture coords

g Cylinder001
usemtl wire_229166215
s 8
f 1/1/1 2/2/2 3/3/3 4/4/4 
f 4/5/4 3/6/3 5/7/5 6/1/6 
f 6/1/6 5/7/5 7/8/7 8/4/8 
f 8/5/8 7/9/7 2/2/2 1/1/1 
s 1
f 9/10/9 10/11/10 11/12/11 12/13/12 
s 8
f 13/14/13 14/15/14 15/16/15 16/17/16 
f 14/18/14 17/14/17 18/17/18 15/19/15 
f 17/14/17 19/15/19 20/16/20 18/17/18 
f 19/18/19 13/14/13 16/17/16 20/19/20 
f 21/20/21 22/21/22 23/22/23 24/23/24 
f 22/24/22 25/20/25 26/23/26 23/25/23 
f 25/20/25 27/21/27 28/22/28 26/23/26 
f 27/24/27 21/20/21 24/23/24 28/25/28 
f 29/26/29 30/27/30 31/28/31 32/29/32 
f 30/30/30 33/26/33 34/29/34 31/31/31 
f 33/26/33 35/27/35 36/28/36 34/29/34 
f 35/30/35 29/26/29 32/29/32 36/31/36 
f 37/32/37 38/33/38 39/34/39 40/35/40 
f 38/36/38 41/32/41 42/35/42 39/37/39 
f 41/32/41 43/33/43 44/34/44 42/35/42 
f 43/36/43 37/32/37 40/35/40 44/37/44 
f 45/38/45 46/39/46 47/40/47 48/41/48 
f 46/42/46 49/38/49 50/41/50 47/43/47 
f 49/38/49 51/39/51 52/40/52 50/41/50 
f 51/42/51 45/38/45 48/41/48 52/43/52 
f 53/44/53 54/45/54 55/46/55 56/47/56 
f 54/48/54 57/44/57 58/47/58 55/49/55 
f 57/44/57 59/45/59 60/46/60 58/47/58 
f 59/48/59 53/44/53 56/47/56 60/49/60 
f 61/50/61 62/51/62 63/52/63 64/53/64 
f 62/54/62 65/50/65 66/53/66 63/55/63 
f 65/50/65 67/51/67 68/52/68 66/53/66 
f 67/54/67 61/50/61 64/53/64 68/55/68 
f 64/53/64 63/52/63 11/56/69 10/57/70 
f 63/55/63 66/53/66 12/57/71 11/58/69 
f 66/53/66 68/52/68 9/56/72 12/57/71 
f 68/55/68 64/53/64 10/57/70 9/58/72 
f 48/41/48 47/40/47 62/51/62 61/50/61 
f 47/43/47 50/41/50 65/50/65 62/54/62 
f 50/41/50 52/40/52 67/51/67 65/50/65 
f 52/43/52 48/41/48 61/50/61 67/54/67 
f 56/47/56 55/46/55 46/39/46 45/38/45 
f 55/49/55 58/47/58 49/38/49 46/42/46 
f 58/47/58 60/46/60 51/39/51 49/38/49 
f 60/49/60 56/47/56 45/38/45 51/42/51 
f 40/35/40 39/34/39 54/45/54 53/44/53 
f 39/37/39 42/35/42 57/44/57 54/48/54 
f 42/35/42 44/34/44 59/45/59 57/44/57 
f 44/37/44 40/35/40 53/44/53 59/48/59 
f 69/59/73 70/60/74 71/61/75 72/62/76 
f 70/63/74 73/59/77 74/62/78 71/64/75 
f 73/59/77 75/60/79 76/61/80 74/62/78 
f 75/63/79 69/59/73 72/62/76 76/64/80 
f 72/62/76 71/61/75 38/33/38 37/32/37 
f 71/64/75 74/62/78 41/32/41 38/36/38 
f 74/62/78 76/61/80 43/33/43 41/32/41 
f 76/64/80 72/62/76 37/32/37 43/36/43 
f 32/29/32 31/28/31 70/60/74 69/59/73 
f 31/31/31 34/29/34 73/59/77 70/63/74 
f 34/29/34 36/28/36 75/60/79 73/59/77 
f 36/31/36 32/29/32 69/59/73 75/63/79 
f 77/65/81 78/66/82 79/67/83 80/68/84 
f 78/69/82 81/65/85 82/68/86 79/70/83 
f 81/65/85 83/66/87 84/67/88 82/68/86 
f 83/69/87 77/65/81 80/68/84 84/70/88 
f 24/23/24 23/22/23 14/15/14 13/14/13 
f 23/25/23 26/23/26 17/14/17 14/18/14 
f 26/23/26 28/22/28 19/15/19 17/14/17 
f 28/25/28 24/23/24 13/14/13 19/18/19 
f 1/1/1 4/4/4 22/21/22 21/20/21 
f 4/5/4 6/1/6 25/20/25 22/24/22 
f 6/1/6 8/4/8 27/21/27 25/20/25 
f 8/5/8 1/1/1 21/20/21 27/24/27 
f 16/17/16 15/16/15 78/66/82 77/65/81 
f 15/19/15 18/17/18 81/65/85 78/69/82 
f 18/17/18 20/16/20 83/66/87 81/65/85 
f 20/19/20 16/17/16 77/65/81 83/69/87 
f 80/68/84 79/67/83 30/27/30 29/26/29 
f 79/70/83 82/68/86 33/26/33 30/30/30 
f 82/68/86 84/67/88 35/27/35 33/26/33 
f 84/70/88 80/68/84 29/26/29 35/30/35 
# 81 polygons

